<svg viewBox="0 0 101 101" version="1.1" xmlns="http://www.w3.org/2000/svg" xmlns:xlink="http://www.w3.org/1999/xlink">
  <path d="M61.6580394,100.001931 C61.3674316,99.0213198 60.9602997,97.4197865 60.551764,95.8169405 C60.3481981,95.0214248 60.1446322,94.2259091 59.9551053,93.5065319 C59.7740018,92.8186602 58.4880268,89.2007703 58.7772308,88.5142114 C59.9396624,85.7548483 65.7448006,86.1053478 72.444225,78.4757483 C75.1116405,75.4367733 75.6746055,74.6123775 76.9212712,72.526446 C78.2170736,70.3578125 79.4342573,67.8163629 80.2204429,65.4613214 C80.9883778,63.1561637 81.3590081,60.7210455 81.6341731,58.3975095 C81.9037224,56.1133555 82.4189548,53.0993224 81.8686249,51.5187928 C81.4432423,50.2927009 81.3239106,48.33673 78.3350014,48.9156449 C75.3460922,49.4945598 77.2413611,52.0543875 74.3282627,54.1219407 C71.4165682,56.1881812 62.3838572,58.2111015 59.9551053,58.5826047 C57.5263534,58.9554207 55.9820602,59.2954183 54.5360403,59.6984271 C53.3876478,60.0187337 52.2476786,60.4191171 51.2789857,61.0006574 C50.2962537,61.5887614 49.6336115,63.1994838 48.64386,63.2309894 C47.6555124,63.262495 46.3667296,61.8670607 45.3460922,61.1857527 C44.3689759,60.5346375 43.49996,59.6367287 42.5186319,59.1405159 C41.5962677,58.6758087 40.5208781,58.4040731 39.4553159,58.2111015 C38.080895,57.9629951 36.0045227,57.8054673 34.2707027,57.6531903 C32.503189,57.4982879 30.4619142,57.5914919 28.8516377,57.2816871 C27.3480577,56.992886 25.7490124,56.5071751 24.6090432,55.7943616 C23.470478,55.081548 22.6463871,53.8423288 22.0174386,53.0061184 C21.4965906,52.3129958 20.9869739,51.2299917 20.3678527,50.5893784 C19.7403082,49.9382633 19.0720504,49.1952568 18.2479594,49.1020529 C17.4224646,49.0088489 16.3919999,49.6127057 15.8908065,50.2178752 C15.378382,50.8374848 15.1720083,51.9323035 15.1720083,52.8197104 C15.1720083,54.0287368 15.6044104,55.9230093 15.8908065,57.4680951 C16.2066847,59.1720215 16.5983736,61.2789566 17.068681,63.0445814 C17.5207378,64.7366932 18.1300316,66.5771438 18.7182669,68.0644693 C19.2447305,69.394267 19.9368546,70.7293157 20.6037084,71.9685349 C21.2495037,73.1683721 21.9289927,74.3590202 22.7250056,75.5010972 C23.5884059,76.7403164 24.7269711,78.2276419 25.7883216,79.4051627 C26.7893044,80.5170469 27.9475242,81.6354947 29.0860894,82.5649091 C30.1699024,83.4496906 31.3702394,84.2491445 32.6211168,84.9829618 C33.9955377,85.7876666 35.7630514,86.7800922 37.3340187,87.3997017 C38.8221557,87.986493 40.0435512,88.4223201 41.1034978,88.7006193 C41.6468082,88.8437072 42.3445479,89.3858655 42.5186319,89.8164417 C42.792393,90.4977497 42.675869,91.5531864 42.7530837,92.7910928 C42.8317022,94.030312 43.0815969,95.2682185 43.224795,96.5087504 C43.3455307,97.549747 43.4185336,98.7719007 43.5519044,99.927105 C17.5642587,99.7643262 0.205,100.04 0.205,100.04 L0.905547522,0.479765283 L36.2502057,0.479765283 C36.2502057,0.479765283 47.6695515,44.93019 49.9466819,44.8579897 C52.2252162,44.7844767 65.7054914,0.04 65.7054914,0.04 L99.872275,0.04 L100.205,99.598922 C100.205,99.598922 84.3970539,100.041313 61.6580394,100.001931 Z" fill="currentColor"></path>
</svg>
